<svg width="20" height="20" viewBox="0 0 20 20" fill="none" xmlns="http://www.w3.org/2000/svg">
<path d="M0 8.33325V10C0 10.9163 0.750244 11.6667 1.66675 11.6667H18.3333C19.2498 11.6667 20 10.9163 20 10V8.33325H0Z" fill="#C4C4C4"/>
<path d="M18.3333 0H1.66675C0.750244 0 0 0.750244 0 1.66675V6.66675H20V1.66675C20 0.750244 19.2498 0 18.3333 0ZM4.16675 4.16675H2.5V2.5H4.16675V4.16675ZM7.5 4.16675H5.83325V2.5H7.5V4.16675Z" fill="#C4C4C4"/>
<path d="M4.1668 13.3333C4.1668 15.407 3.35957 17.356 1.89453 18.8215L3.07305 20C4.91382 18.16 5.8333 15.7462 5.8333 13.3333H4.1668Z" fill="#C4C4C4"/>
<path d="M15.8325 13.3333H14.166C14.166 15.7462 15.0855 18.16 16.9263 20L18.1048 18.8215C16.64 17.356 15.8325 15.407 15.8325 13.3333Z" fill="#C4C4C4"/>
<path d="M9.16675 13.3325H7.5V19.9993H9.16675V13.3325Z" fill="#C4C4C4"/>
<path d="M12.4988 13.3325H10.832V19.9993H12.4988V13.3325Z" fill="#C4C4C4"/>
</svg>
