<svg width="19" height="20" viewBox="0 0 19 20" fill="none" xmlns="http://www.w3.org/2000/svg">
<path fill-rule="evenodd" clip-rule="evenodd" d="M18.5179 20H0.310491C0.140691 20 0 19.8662 0 19.7047V3.29873H18.8235V19.7047C18.809 19.8662 18.6731 20 18.5179 20ZM2.49363 2.02999H1.65919C1.48939 2.02999 1.35355 1.90081 1.35355 1.73933C1.35355 1.57785 1.48939 1.46251 1.65919 1.46251H2.49363C2.66828 1.46251 2.80412 1.5917 2.80412 1.75779C2.80412 1.91926 2.64888 2.02999 2.49363 2.02999ZM4.70103 2.02999H3.86173C3.69193 2.02999 3.55609 1.90081 3.55609 1.73933C3.55609 1.57785 3.69193 1.46251 3.86173 1.46251H4.70103C4.87083 1.46251 5.00667 1.5917 5.00667 1.75779C5.00667 1.91926 4.85143 2.02999 4.70103 2.02999ZM6.90358 2.02999H6.06428C5.89448 2.02999 5.75864 1.90081 5.75864 1.73933C5.75864 1.57785 5.89448 1.44867 6.06428 1.44867H6.90358C7.07338 1.44867 7.20922 1.57785 7.20922 1.73933C7.20922 1.90081 7.07338 2.02999 6.90358 2.02999ZM17.5622 2.02999H11.0176C10.8478 2.02999 10.7119 1.90081 10.7119 1.73933C10.7119 1.57785 10.8478 1.44867 11.0176 1.44867H17.5767C17.7514 1.44867 17.8872 1.57785 17.8872 1.73933C17.8872 1.90081 17.732 2.02999 17.5622 2.02999ZM16.1116 18.0992H2.7168C2.13948 18.0992 1.65919 17.6424 1.65919 17.075V5.65629C1.65919 5.0842 2.13948 4.63206 2.7168 4.63206H16.0922C16.6889 4.63206 17.1692 5.0842 17.1692 5.65629V17.075C17.1838 17.6424 16.6889 18.0992 16.1116 18.0992ZM2.7168 5.19954C2.45967 5.19954 2.25591 5.39331 2.25591 5.65629V17.075C2.25591 17.3195 2.45967 17.5271 2.7168 17.5271H16.0922C16.3639 17.5271 16.5725 17.3333 16.5725 17.075V5.65629C16.5725 5.39331 16.3639 5.19954 16.0922 5.19954H2.7168ZM10.9157 8.83968H10.0813C9.91146 8.83968 9.77077 8.7105 9.77077 8.54441V7.19723C9.77077 7.03576 9.91146 6.90657 10.0813 6.90657H11.2262C11.2602 6.90657 11.2941 6.91119 11.3281 6.92041H13.6519C13.8217 6.92041 13.9576 7.0496 13.9576 7.21569V9.22722H15.2238V7.70012C15.2238 7.53864 15.3596 7.40946 15.5294 7.40946C15.6992 7.40946 15.8351 7.53864 15.8351 7.70012V9.52249C15.8205 9.68397 15.6847 9.81315 15.51 9.81315H13.6519H11.2262H3.33293C3.16313 9.81315 3.02729 9.68397 3.02729 9.52249V7.63552C3.02729 7.47405 3.16313 7.34487 3.33293 7.34487C3.50273 7.34487 3.63857 7.47405 3.63857 7.63552V9.22722H5.50152V6.92041H6.6319V9.22722H7.24318V6.92041H8.37356V9.22722H10.9157V8.83968ZM10.9157 7.48789H10.3723V8.26759H10.9157V7.48789ZM11.5173 8.46597C11.527 8.49366 11.5318 8.52595 11.5318 8.56286C11.5318 8.59516 11.527 8.62745 11.5173 8.65513V9.22722H13.3414V7.48789H11.5173V8.46597ZM15.51 16.3737H12.08H9.41177H6.76774H3.33293C3.16313 16.3737 3.02729 16.2445 3.02729 16.083V14.2145C3.02729 14.0531 3.16313 13.9239 3.33293 13.9239C3.50273 13.9239 3.63857 14.0531 3.63857 14.2145V15.8062H5.24924C4.78836 15.4002 4.49242 14.8097 4.49242 14.1499C4.49242 12.9319 5.52092 11.94 6.76774 11.94C7.25773 11.94 7.70892 12.0923 8.08247 12.3552C8.46089 12.0738 8.92662 11.9262 9.41177 11.9262C9.91146 11.9262 10.3723 12.083 10.7508 12.3506C11.1292 12.0738 11.5901 11.9262 12.08 11.9262C13.3269 11.9262 14.3505 12.9135 14.3505 14.1361C14.3505 14.8051 14.0546 15.4002 13.5937 15.8062H15.2238V14.2791C15.2238 14.1176 15.3596 13.9885 15.5294 13.9885C15.6992 13.9885 15.8351 14.1176 15.8351 14.2791V16.1015C15.8205 16.2445 15.6847 16.3737 15.51 16.3737ZM7.8205 15.4233C7.83505 15.3956 7.85446 15.3725 7.87872 15.3541C7.90297 15.331 7.92723 15.3126 7.95634 15.2987C8.24257 14.9988 8.42207 14.5928 8.42207 14.1499C8.42207 13.2411 7.6701 12.5075 6.76774 12.5075C5.84597 12.5075 5.094 13.2411 5.094 14.1499C5.094 15.0588 5.84597 15.8062 6.76774 15.8062C7.16556 15.8062 7.53426 15.6632 7.8205 15.4233ZM8.52881 15.534C8.79563 15.7047 9.10127 15.7924 9.41177 15.7924C9.83869 15.7924 10.222 15.6355 10.5179 15.3772C10.5276 15.3679 10.5324 15.3587 10.5421 15.3541C10.5519 15.3403 10.5616 15.331 10.5761 15.3218C10.8914 15.0219 11.0855 14.5975 11.0855 14.1361C11.0855 13.6794 10.9012 13.2734 10.6004 12.9781C10.581 12.9642 10.5616 12.9504 10.5421 12.9319C10.5276 12.9181 10.513 12.9043 10.5033 12.8858C10.2074 12.6413 9.82899 12.4937 9.41177 12.4937C9.08187 12.4937 8.77138 12.5813 8.51425 12.7566C8.82959 13.1349 9.0188 13.624 9.0188 14.1499C9.0188 14.6759 8.83445 15.1511 8.52881 15.534ZM11.1922 15.5294C11.4591 15.7047 11.7647 15.7924 12.08 15.7924C13.0018 15.7924 13.7538 15.045 13.7538 14.1361C13.7538 13.2226 13.0018 12.4937 12.08 12.4937C11.7502 12.4937 11.4397 12.5813 11.1825 12.752C11.4979 13.1303 11.6871 13.6101 11.6871 14.1361C11.6871 14.6667 11.5027 15.1511 11.1922 15.5294ZM0 2.7128V0.295271C0 0.133795 0.140691 0 0.310491 0H18.5179C18.6877 0 18.8235 0.133795 18.8235 0.295271V2.7128H0Z" fill="#C4C4C4"/>
</svg>
