<svg width="20" height="16" viewBox="0 0 20 16" fill="none" xmlns="http://www.w3.org/2000/svg">
<path d="M11.3794 13.794C11.3794 14.0668 11.2985 14.3335 11.1469 14.5604C10.9953 14.7872 10.7799 14.964 10.5279 15.0684C10.2758 15.1728 9.99847 15.2001 9.7309 15.1469C9.46333 15.0937 9.21755 14.9623 9.02464 14.7694C8.83174 14.5765 8.70036 14.3307 8.64714 14.0631C8.59392 13.7956 8.62123 13.5182 8.72563 13.2662C8.83004 13.0141 9.00683 12.7987 9.23367 12.6471C9.4605 12.4956 9.72719 12.4147 10 12.4147C10.3658 12.4147 10.7167 12.56 10.9754 12.8187C11.234 13.0774 11.3794 13.4282 11.3794 13.794ZM19.6219 3.44105C16.909 1.21602 13.5087 0 10 0C6.4913 0 3.09105 1.21602 0.378081 3.44105C0.273077 3.52727 0.186081 3.63331 0.12206 3.75315C0.0580402 3.87298 0.0182498 4.00425 0.0049609 4.13946C-0.00832799 4.27467 0.00514497 4.41117 0.0446104 4.54118C0.0840759 4.67118 0.148761 4.79214 0.234973 4.89714C0.321184 5.00215 0.427234 5.08914 0.547067 5.15316C0.666899 5.21718 0.798168 5.25698 0.933379 5.27026C1.06859 5.28355 1.20509 5.27008 1.3351 5.23061C1.4651 5.19115 1.58606 5.12646 1.69106 5.04025C4.03394 3.1191 6.97016 2.06917 10 2.06917C13.0298 2.06917 15.9661 3.1191 18.3089 5.04025C18.4139 5.12646 18.5349 5.19115 18.6649 5.23061C18.7949 5.27008 18.9314 5.28355 19.0666 5.27026C19.2018 5.25698 19.3331 5.21718 19.4529 5.15316C19.5728 5.08914 19.6788 5.00215 19.765 4.89714C19.8512 4.79214 19.9159 4.67118 19.9554 4.54118C19.9949 4.41117 20.0083 4.27467 19.995 4.13946C19.9818 4.00425 19.942 3.87298 19.8779 3.75315C19.8139 3.63331 19.7269 3.52727 19.6219 3.44105ZM16.8494 6.52134C14.8999 4.97802 12.4864 4.13831 10 4.13831C7.51359 4.13831 5.10006 4.97802 3.1506 6.52134C2.94093 6.69344 2.80724 6.94101 2.77833 7.21073C2.74942 7.48044 2.8276 7.75072 2.99603 7.96335C3.16446 8.17598 3.40967 8.31395 3.67884 8.34755C3.94801 8.38114 4.21961 8.30767 4.43513 8.14296C6.01902 6.88914 7.97991 6.20695 10 6.20695C12.0201 6.20695 13.981 6.88914 15.5649 8.14296C15.7804 8.30767 16.052 8.38114 16.3212 8.34755C16.5903 8.31395 16.8355 8.17598 17.004 7.96335C17.1724 7.75072 17.2506 7.48044 17.2217 7.21073C17.1928 6.94101 17.0591 6.69344 16.8494 6.52134ZM14.0579 9.5956C12.8786 8.73827 11.458 8.27649 10 8.27649C8.54198 8.27649 7.12142 8.73827 5.94209 9.5956C5.7203 9.75725 5.57182 10.0004 5.5293 10.2715C5.48678 10.5426 5.5537 10.8196 5.71535 11.0413C5.87701 11.2631 6.12014 11.4116 6.39127 11.4541C6.6624 11.4967 6.93931 11.4297 7.1611 11.2681C7.98614 10.6683 8.97996 10.3452 10 10.3452C11.02 10.3452 12.0139 10.6683 12.8389 11.2681C12.9487 11.3481 13.0732 11.4057 13.2053 11.4377C13.3374 11.4696 13.4745 11.4752 13.6087 11.4541C13.743 11.4331 13.8718 11.3858 13.9877 11.315C14.1037 11.2441 14.2046 11.1512 14.2846 11.0413C14.3647 10.9315 14.4223 10.807 14.4542 10.6749C14.4862 10.5428 14.4918 10.4058 14.4707 10.2715C14.4496 10.1373 14.4024 10.0085 14.3315 9.8925C14.2607 9.77653 14.1677 9.67564 14.0579 9.5956Z" fill="#C4C4C4"/>
</svg>
