<svg width="20" height="20" viewBox="0 0 20 20" fill="none" xmlns="http://www.w3.org/2000/svg">
<path d="M0 20H8.2423V15.2756H0V20ZM1.80267 16.499H6.47867V17.6704H1.80267V16.499Z" fill="#C4C4C4"/>
<path d="M0 14.1043H8.2423V9.45807H0V14.1043ZM1.80267 10.7044H6.47867V11.8757H1.80267V10.7044Z" fill="#C4C4C4"/>
<path d="M9.41406 20H20.0001V9.45807H9.41406V20ZM16.4454 10.7044H17.6173V11.9046H16.4454V10.7044ZM14.1016 10.7044H15.2735V11.9046H14.1016V10.7044ZM11.7578 10.7044H12.9297V11.9046H11.7578V10.7044ZM11.7578 12.9525H17.6173V17.6574H11.7578V12.9525Z" fill="#C4C4C4"/>
<path d="M16.4454 2.70043V0H12.9297V2.70238L9.41406 5.045V7.11543H20.0001V5.04305L16.4454 2.70043Z" fill="#C4C4C4"/>
</svg>
