<svg width="21" height="18" viewBox="0 0 21 18" fill="none" xmlns="http://www.w3.org/2000/svg">
<path d="M18.4084 13.0758C18.0417 12.03 17.1872 11.5 16.3622 10.9875C15.6442 10.5413 14.9663 10.1196 14.523 9.3625C13.3009 7.26542 12.6297 6 10.6276 6C8.62549 6 7.95216 7.26583 6.72716 9.36208C6.28341 10.1208 5.60216 10.5433 4.88341 10.9904C4.05841 11.5033 3.20549 12.0321 2.83758 13.0758C2.69438 13.4522 2.62233 13.8519 2.62508 14.2546C2.62508 15.9521 3.97716 17.3333 5.47508 17.3333C6.97299 17.3333 8.94633 16.5779 10.6317 16.5779C12.3172 16.5779 14.263 17.3333 15.7797 17.3333C17.2963 17.3333 18.6251 15.9521 18.6251 14.2546C18.6263 13.8517 18.5528 13.452 18.4084 13.0758Z" fill="#C4C4C4"/>
<path d="M2.95833 10C4.247 10 5.29167 8.65685 5.29167 7C5.29167 5.34315 4.247 4 2.95833 4C1.66967 4 0.625 5.34315 0.625 7C0.625 8.65685 1.66967 10 2.95833 10Z" fill="#C4C4C4"/>
<path d="M7.62533 6C8.91399 6 9.95866 4.65685 9.95866 3C9.95866 1.34315 8.91399 0 7.62533 0C6.33666 0 5.29199 1.34315 5.29199 3C5.29199 4.65685 6.33666 6 7.62533 6Z" fill="#C4C4C4"/>
<path d="M13.6253 6C14.914 6 15.9587 4.65685 15.9587 3C15.9587 1.34315 14.914 0 13.6253 0C12.3367 0 11.292 1.34315 11.292 3C11.292 4.65685 12.3367 6 13.6253 6Z" fill="#C4C4C4"/>
<path d="M18.2913 10C19.58 10 20.6247 8.65685 20.6247 7C20.6247 5.34315 19.58 4 18.2913 4C17.0027 4 15.958 5.34315 15.958 7C15.958 8.65685 17.0027 10 18.2913 10Z" fill="#C4C4C4"/>
</svg>
