<svg width="17" height="20" viewBox="0 0 17 20" fill="none" xmlns="http://www.w3.org/2000/svg">
<path d="M16.2109 0H11.1328V20H16.2109C16.5345 20 16.7969 19.7377 16.7969 19.4141V0.585938C16.7969 0.262344 16.5345 0 16.2109 0ZM13.9453 10.625C13.9453 10.9486 13.683 11.2109 13.3594 11.2109C13.0358 11.2109 12.7734 10.9486 12.7734 10.625V9.375C12.7734 9.05141 13.0358 8.78906 13.3594 8.78906C13.683 8.78906 13.9453 9.05141 13.9453 9.375V10.625Z" fill="#C4C4C4"/>
<path d="M1.60156 3.91734C1.60156 2.98504 2.36004 2.22656 3.29234 2.22656C3.74398 2.22656 4.16859 2.40246 4.48793 2.7218L5 3.23387L5.2107 3.02316C5.43949 2.79437 5.81051 2.79437 6.03934 3.02316C6.26816 3.25195 6.26816 3.62297 6.03934 3.8518L4.78934 5.1018C4.56047 5.33066 4.18953 5.33063 3.9607 5.1018C3.73187 4.87301 3.73187 4.50199 3.9607 4.27316L4.17141 4.06246L3.65934 3.55039C3.56133 3.45238 3.43102 3.3984 3.29238 3.3984C3.00621 3.39844 2.77344 3.63121 2.77344 3.91734V9.41406H3.78906V9.375C3.78906 9.05141 4.05141 8.78906 4.375 8.78906C4.69859 8.78906 4.96094 9.05141 4.96094 9.375V10.625C4.96094 10.9486 4.69859 11.2109 4.375 11.2109C4.05141 11.2109 3.78906 10.9486 3.78906 10.625V10.5859H2.77344V12.5391H3.75C4.07359 12.5391 4.33594 12.8014 4.33594 13.125C4.33594 13.4486 4.07359 13.7109 3.75 13.7109H2.77344V20H9.96094V0H0.585938C0.262344 0 0 0.262344 0 0.585938V19.4141C0 19.7377 0.262344 20 0.585938 20H1.60156V3.91734Z" fill="#C4C4C4"/>
</svg>
