<svg width="20" height="20" viewBox="0 0 20 20" fill="none" xmlns="http://www.w3.org/2000/svg">
<path d="M4 5H16V12H4V5Z" fill="#C4C4C4"/>
<path fill-rule="evenodd" clip-rule="evenodd" d="M1 3.5C1 3.10218 1.15804 2.72064 1.43934 2.43934C1.72064 2.15804 2.10218 2 2.5 2H17.5C17.8978 2 18.2794 2.15804 18.5607 2.43934C18.842 2.72064 19 3.10218 19 3.5V13.5C19 13.8978 18.842 14.2794 18.5607 14.5607C18.2794 14.842 17.8978 15 17.5 15H12V16.5H15.25C15.4489 16.5 15.6397 16.579 15.7803 16.7197C15.921 16.8603 16 17.0511 16 17.25C16 17.4489 15.921 17.6397 15.7803 17.7803C15.6397 17.921 15.4489 18 15.25 18H4.75C4.55109 18 4.36032 17.921 4.21967 17.7803C4.07902 17.6397 4 17.4489 4 17.25C4 17.0511 4.07902 16.8603 4.21967 16.7197C4.36032 16.579 4.55109 16.5 4.75 16.5H8V15H2.5C2.10218 15 1.72064 14.842 1.43934 14.5607C1.15804 14.2794 1 13.8978 1 13.5V3.5ZM17.5 3.5H2.5V13.5H17.5V3.5Z" fill="#C4C4C4"/>
</svg>
