<svg width="20" height="20" viewBox="0 0 20 20" fill="none" xmlns="http://www.w3.org/2000/svg">
<path d="M17.2969 14.1336C16.9532 13.1531 16.152 12.6563 15.3786 12.1758C14.7055 11.7574 14.07 11.3621 13.6544 10.6523C12.5087 8.68633 11.8794 7.5 10.0024 7.5C8.12546 7.5 7.49421 8.68672 6.34577 10.652C5.92976 11.3633 5.29109 11.7594 4.61726 12.1785C3.84382 12.6594 3.04421 13.1551 2.69929 14.1336C2.56505 14.4864 2.49749 14.8612 2.50007 15.2387C2.50007 16.8301 3.76765 18.125 5.17195 18.125C6.57624 18.125 8.42624 17.4168 10.0063 17.4168C11.5864 17.4168 13.4106 18.125 14.8325 18.125C16.2544 18.125 17.5001 16.8301 17.5001 15.2387C17.5012 14.8609 17.4323 14.4862 17.2969 14.1336Z" fill="#C4C4C4"/>
<path d="M2.8125 11.25C4.02062 11.25 5 9.9908 5 8.4375C5 6.8842 4.02062 5.625 2.8125 5.625C1.60438 5.625 0.625 6.8842 0.625 8.4375C0.625 9.9908 1.60438 11.25 2.8125 11.25Z" fill="#C4C4C4"/>
<path d="M7.1875 7.5C8.39562 7.5 9.375 6.2408 9.375 4.6875C9.375 3.1342 8.39562 1.875 7.1875 1.875C5.97938 1.875 5 3.1342 5 4.6875C5 6.2408 5.97938 7.5 7.1875 7.5Z" fill="#C4C4C4"/>
<path d="M12.8125 7.5C14.0206 7.5 15 6.2408 15 4.6875C15 3.1342 14.0206 1.875 12.8125 1.875C11.6044 1.875 10.625 3.1342 10.625 4.6875C10.625 6.2408 11.6044 7.5 12.8125 7.5Z" fill="#C4C4C4"/>
<path d="M17.1875 11.25C18.3956 11.25 19.375 9.9908 19.375 8.4375C19.375 6.8842 18.3956 5.625 17.1875 5.625C15.9794 5.625 15 6.8842 15 8.4375C15 9.9908 15.9794 11.25 17.1875 11.25Z" fill="#C4C4C4"/>
</svg>
