<svg width="25" height="25" viewBox="0 0 25 25" fill="none" xmlns="http://www.w3.org/2000/svg">
<path fill-rule="evenodd" clip-rule="evenodd" d="M9.68009 1.3466C9.87545 1.15125 10.1404 1.0415 10.4167 1.0415H18.75C20.4759 1.0415 21.875 2.44062 21.875 4.1665V20.8332C21.875 22.5591 20.4759 23.9582 18.75 23.9582H6.25C4.52411 23.9582 3.125 22.5591 3.125 20.8332V8.33317C3.125 8.0569 3.23475 7.79195 3.43009 7.5966L9.68009 1.3466ZM18.75 3.12484H11.4583V8.33317C11.4583 8.90846 10.992 9.37484 10.4167 9.37484H5.20833V20.8332C5.20833 21.4085 5.67471 21.8748 6.25 21.8748H18.75C19.3253 21.8748 19.7917 21.4085 19.7917 20.8332V4.1665C19.7917 3.59121 19.3253 3.12484 18.75 3.12484ZM6.68147 7.2915H9.375V4.59797L6.68147 7.2915ZM7.29167 13.5415C7.29167 12.9662 7.75804 12.4998 8.33333 12.4998H16.6667C17.242 12.4998 17.7083 12.9662 17.7083 13.5415C17.7083 14.1168 17.242 14.5832 16.6667 14.5832H8.33333C7.75804 14.5832 7.29167 14.1168 7.29167 13.5415ZM7.29167 17.7082C7.29167 17.1329 7.75804 16.6665 8.33333 16.6665H16.6667C17.242 16.6665 17.7083 17.1329 17.7083 17.7082C17.7083 18.2835 17.242 18.7498 16.6667 18.7498H8.33333C7.75804 18.7498 7.29167 18.2835 7.29167 17.7082Z" fill="#C59C7E"/>
</svg>
