<svg width="24" height="24" viewBox="0 0 24 24" fill="none" xmlns="http://www.w3.org/2000/svg">
<g clip-path="url(#clip0_903_2717)">
<path d="M18.5694 3.99819C17.952 2.82458 16.9853 1.84672 15.7877 1.13741C14.5907 0.431237 13.1458 3.37563e-05 11.5776 3.37563e-05C9.64458 -0.00474749 8.03855 0.498877 6.82641 1.19633C5.60944 1.8913 5.08472 2.70046 5.08472 2.70046C4.88021 2.87792 4.76485 3.13611 4.76968 3.40621C4.77521 3.67667 4.89975 3.93055 5.1106 4.09921L6.79496 5.44827C7.13827 5.72314 7.62961 5.71283 7.96097 5.42399C7.96097 5.42399 8.16788 5.05002 8.8163 4.67961C9.46833 4.31164 10.3137 4.01525 11.5776 4.01127C12.68 4.00888 13.6411 4.42025 14.2971 4.98238C14.623 5.26086 14.8664 5.57272 15.0156 5.858C15.166 6.14563 15.2209 6.39707 15.2201 6.58803C15.2169 7.23332 15.0916 7.65538 14.9106 8.015C14.7726 8.28355 14.5924 8.52186 14.3604 8.753C14.0143 9.09913 13.5449 9.41896 13.0182 9.71296C12.4911 10.0105 11.9229 10.2723 11.3489 10.5886C10.6936 10.9514 10.0003 11.4726 9.48788 12.2547C9.23246 12.6414 9.03272 13.0837 8.90588 13.5504C8.77735 14.0174 8.71932 14.5072 8.71932 15.0068C8.71932 15.5399 8.71932 15.9775 8.71932 15.9775C8.71932 16.48 9.12666 16.8874 9.62916 16.8874H11.8211C12.3236 16.8874 12.731 16.48 12.731 15.9775C12.731 15.9775 12.731 15.5399 12.731 15.0068C12.731 14.8143 12.7529 14.6902 12.774 14.6114C12.8102 14.4936 12.8305 14.4642 12.8897 14.3926C12.9502 14.3245 13.0723 14.2204 13.2975 14.0958C13.6265 13.9108 14.1552 13.661 14.7539 13.3376C15.6502 12.8474 16.7398 12.1823 17.6588 11.0847C18.1159 10.5369 18.5201 9.87725 18.7989 9.11741C19.0802 8.35757 19.2322 7.50346 19.2314 6.58803C19.2306 5.66066 18.9791 4.77988 18.5694 3.99819Z" fill="#C59C7E"/>
<path d="M10.7254 19.0518C9.35891 19.0518 8.25098 20.1601 8.25098 21.5262C8.25098 22.8919 9.35896 23.9999 10.7254 23.9999C12.0912 23.9999 13.1987 22.8919 13.1987 21.5262C13.1987 20.1601 12.0912 19.0518 10.7254 19.0518Z" fill="#C59C7E"/>
</g>
<defs>
<clipPath id="clip0_903_2717">
<rect width="24" height="24" fill="white"/>
</clipPath>
</defs>
</svg>
