<svg width="30" height="31" viewBox="0 0 30 31" fill="none" xmlns="http://www.w3.org/2000/svg">
<path d="M9.36047 20.3433H10.7267L11.6364 25.3092L11.8864 25.3096L11.8864 25.3095L11.8949 20.3433H17.8711C18.2021 20.3433 18.4552 20.0675 18.4552 19.7468C18.4552 19.4261 18.2021 19.1504 17.8711 19.1504H11.8973L11.9009 17.0977H17.5352C20.4557 17.0977 22.8162 14.6368 22.8162 11.6307C22.8162 8.62452 20.4557 6.16357 17.5352 6.16357H9.3607C9.02951 6.16357 8.77659 6.43911 8.77659 6.76002C8.77659 7.08094 9.02951 7.35647 9.3607 7.35647H10.7492L10.7344 15.9048H9.36604C9.03475 15.9048 8.78194 16.1807 8.78194 16.5013C8.78194 16.8219 9.03474 17.0977 9.36604 17.0977H10.7325L10.7289 19.1504H9.36047C9.02918 19.1504 8.77637 19.4262 8.77637 19.7468C8.77637 20.0674 9.02918 20.3433 9.36047 20.3433ZM11.9029 15.9048L11.9174 7.35647H17.5352C19.7942 7.35647 21.648 9.26563 21.648 11.6309C21.648 13.9959 19.7942 15.9048 17.5352 15.9048H11.9029Z" fill="#C59C7E" stroke="#C59C7E" stroke-width="0.5"/>
</svg>
