<svg width="27" height="27" viewBox="0 0 27 27" fill="none" xmlns="http://www.w3.org/2000/svg">
<path d="M18.18 13.4004L20.0987 11.4814L15.5159 6.89777L13.5973 8.81678L8.538 3.76869C7.5848 2.8153 6.03279 2.8153 5.07958 3.76869L2.75767 6.09106C1.80447 7.04445 1.80447 8.59677 2.75767 9.55016L7.80477 14.5982L2.18331 20.233C2.0611 20.3553 2 20.5019 2 20.6731V24.3889C2 24.7311 2.26885 25 2.61103 25H6.32608C6.48495 25 6.64381 24.9389 6.7538 24.8167L12.3997 19.1696L17.4468 24.2177C19.0599 25.8312 20.8197 24.3033 20.9052 24.2177L23.2271 21.8954C24.1803 20.942 24.1803 19.3897 23.2271 18.4363L18.18 13.4004ZM9.55231 12.8626L4.493 7.8145L6.80268 5.49213L8.35469 7.04445L7.78033 7.64337C7.55183 7.87192 7.42346 8.18189 7.42346 8.5051C7.42346 8.8283 7.55183 9.13827 7.78033 9.36681C8.00882 9.59536 8.31873 9.72375 8.64188 9.72375C8.96502 9.72375 9.27493 9.59536 9.50343 9.36681L10.09 8.78011L11.862 10.5524L9.55231 12.8626ZM19.1821 22.5065L14.135 17.4584L16.4569 15.1361L18.2289 16.9084L17.6423 17.4951C17.5292 17.6083 17.4394 17.7426 17.3782 17.8905C17.317 18.0383 17.2855 18.1968 17.2855 18.3568C17.2855 18.5168 17.317 18.6753 17.3782 18.8232C17.4394 18.971 17.5292 19.1054 17.6423 19.2185C17.7555 19.3317 17.8898 19.4215 18.0376 19.4827C18.1854 19.5439 18.3439 19.5755 18.5039 19.5755C18.6639 19.5755 18.8223 19.5439 18.9701 19.4827C19.118 19.4215 19.2523 19.3317 19.3654 19.2185L19.952 18.6318L21.504 20.1841L19.1821 22.5065ZM23.6426 7.93673C23.7559 7.82365 23.8458 7.68933 23.9071 7.54146C23.9684 7.3936 24 7.23509 24 7.07501C24 6.91492 23.9684 6.75641 23.9071 6.60855C23.8458 6.46068 23.7559 6.32637 23.6426 6.21329L20.783 3.35311C20.2086 2.77863 19.4143 2.99864 19.0599 3.35311L16.8235 5.58992L21.4063 10.1735L23.6426 7.93673Z" fill="#C59C7E"/>
</svg>
