<svg width="269" height="107" viewBox="0 0 269 107" fill="none" xmlns="http://www.w3.org/2000/svg">
<path d="M98.2397 106.04C91.2197 106.04 85.1748 104.653 80.1047 101.88C75.0781 99.1067 70.9614 95.315 67.7547 90.505C64.5914 85.695 62.2514 80.2567 60.7347 74.19C59.2614 68.08 58.5464 61.71 58.5897 55.08C58.7197 45.3733 60.6264 36.9667 64.3097 29.86C67.9931 22.71 72.9114 17.2067 79.0647 13.35C85.2614 9.45 92.1731 7.5 99.7998 7.5C106.906 7.5 112.951 8.8 117.935 11.4C122.961 14 127.035 17.575 130.155 22.125C133.318 26.6317 135.615 31.81 137.045 37.66C138.518 43.51 139.233 49.7067 139.19 56.25C139.103 66.3467 137.261 75.1217 133.665 82.575C130.068 90.0283 125.193 95.8133 119.04 99.93C112.93 104.003 105.996 106.04 98.2397 106.04ZM98.7598 89.66C103.7 89.66 107.513 87.0817 110.2 81.925C112.886 76.725 114.23 68.34 114.23 56.77C114.23 49.8367 113.666 43.9217 112.54 39.025C111.413 34.1283 109.723 30.38 107.47 27.78C105.216 25.18 102.4 23.88 99.0197 23.88C94.0798 23.88 90.2664 26.3717 87.5797 31.355C84.8931 36.295 83.5497 44.03 83.5497 54.56C83.5497 61.58 84.1131 67.7333 85.2397 73.02C86.3664 78.2633 88.0564 82.3583 90.3097 85.305C92.5631 88.2083 95.3797 89.66 98.7598 89.66Z" fill="#146492"/>
<path d="M190.027 106.04C183.007 106.04 176.962 104.653 171.892 101.88C166.865 99.1067 162.749 95.315 159.542 90.505C156.379 85.695 154.039 80.2567 152.522 74.19C151.049 68.08 150.334 61.71 150.377 55.08C150.507 45.3733 152.414 36.9667 156.097 29.86C159.78 22.71 164.699 17.2067 170.852 13.35C177.049 9.45 183.96 7.5 191.587 7.5C198.694 7.5 209.017 9.4 214 12C210 14 210 22 210 25.5C210 31.355 214.5 46.5 230 45C231.473 50.85 231.02 49.7067 230.977 56.25C230.89 66.3467 229.049 75.1217 225.452 82.575C221.855 90.0283 216.98 95.8133 210.827 99.93C204.717 104.003 197.784 106.04 190.027 106.04ZM190.547 89.66C195.487 89.66 199.3 87.0817 201.987 81.925C204.674 76.725 206.017 68.34 206.017 56.77C206.017 49.8367 205.454 43.9217 204.327 39.025C203.2 34.1283 201.51 30.38 199.257 27.78C197.004 25.18 194.187 23.88 190.807 23.88C185.867 23.88 182.054 26.3717 179.367 31.355C176.68 36.295 175.337 44.03 175.337 54.56C175.337 61.58 175.9 67.7333 177.027 73.02C178.154 78.2633 179.844 82.3583 182.097 85.305C184.35 88.2083 187.167 89.66 190.547 89.66Z" fill="#146492"/>
<path d="M24.7041 7.90259L0 34.9941L12.2149 46.6462L21.0746 39.6633V105.062H47.418V7.90259H24.7041Z" fill="#146492"/>
<path d="M218.098 9.29494H227.306L233.641 25.5305H233.96L240.294 9.29494H249.503V37.9591H242.264V21.3876H242.051L235.983 37.7351H231.618L225.55 21.2756H225.337V37.9591H218.098V9.29494Z" fill="#C59C7E"/>
<path d="M252.265 23.2448V18.766L260.398 11.6896C260.937 11.2193 261.399 10.7789 261.782 10.3683C262.172 9.95033 262.47 9.52111 262.676 9.0807C262.889 8.64029 262.996 8.15136 262.996 7.61391C262.996 7.0242 262.875 6.52034 262.634 6.10232C262.399 5.6843 262.073 5.36332 261.654 5.13939C261.236 4.90798 260.753 4.79228 260.206 4.79228C259.66 4.79228 259.177 4.90798 258.759 5.13939C258.347 5.37079 258.028 5.71043 257.8 6.15831C257.573 6.60618 257.46 7.1511 257.46 7.79306H251.839C251.839 6.1807 252.183 4.79228 252.871 3.6278C253.56 2.46332 254.532 1.56757 255.788 0.940542C257.045 0.313514 258.517 0 260.206 0C261.952 0 263.464 0.294852 264.742 0.884557C266.026 1.4668 267.016 2.2879 267.712 3.34788C268.414 4.40785 268.766 5.65071 268.766 7.07645C268.766 7.95728 268.592 8.83437 268.244 9.70773C267.896 10.5736 267.272 11.5328 266.37 12.5853C265.469 13.6378 264.188 14.8919 262.527 16.3475L260.483 18.139V18.2734H269V23.2448H252.265Z" fill="#C59C7E"/>
</svg>
