<svg width="160" height="73" viewBox="0 0 160 73" fill="none" xmlns="http://www.w3.org/2000/svg">
<path d="M48.7689 73C45.269 73 42.2552 72.3105 39.7275 70.9314C37.2214 69.5523 35.169 67.6669 33.5703 65.2751C31.9931 62.8832 30.8265 60.179 30.0703 57.1623C29.3358 54.124 28.9793 50.9565 29.0009 47.6596C29.0657 42.8329 30.0163 38.6526 31.8527 35.1187C33.6891 31.5633 36.1412 28.8267 39.209 26.909C42.2984 24.9697 45.7443 24 49.5467 24C53.0898 24 56.1036 24.6464 58.5881 25.9393C61.0942 27.2322 63.125 29.0099 64.6806 31.2724C66.2577 33.5134 67.4027 36.0884 68.1157 38.9974C68.8502 41.9063 69.2067 44.9877 69.1851 48.2414C69.1419 53.2621 68.2237 57.6255 66.4305 61.3318C64.6374 65.038 62.2069 67.9147 59.139 69.9617C56.0928 71.9872 52.6361 73 48.7689 73ZM49.0282 64.8549C51.4911 64.8549 53.3923 63.5728 54.7317 61.0086C56.0712 58.4228 56.741 54.2533 56.741 48.5C56.741 45.0523 56.4601 42.111 55.8984 39.6761C55.3367 37.2412 54.4941 35.3773 53.3707 34.0844C52.2472 32.7916 50.843 32.1451 49.1578 32.1451C46.6949 32.1451 44.7937 33.3841 43.4543 35.8621C42.1148 38.3186 41.4451 42.1649 41.4451 47.4011C41.4451 50.8918 41.7259 53.9516 42.2876 56.5805C42.8493 59.1878 43.6919 61.2241 44.8153 62.6893C45.9388 64.133 47.343 64.8549 49.0282 64.8549Z" fill="#545454"/>
<path d="M94.5306 73C91.0306 73 88.0168 72.3105 85.4891 70.9314C82.983 69.5523 80.9306 67.6669 79.3319 65.2751C77.7548 62.8832 76.5881 60.179 75.832 57.1623C75.0974 54.124 74.7409 50.9565 74.7625 47.6596C74.8274 42.8329 75.778 38.6526 77.6143 35.1187C79.4507 31.5633 81.9028 28.8267 84.9706 26.909C88.06 24.9697 91.5059 24 95.3083 24C98.8514 24 103.998 24.9448 106.483 26.2377C104.488 27.2322 104.488 31.2103 104.488 32.9507C104.488 35.8621 106.732 43.3931 114.46 42.6472C115.208 45.6308 114.968 44.9877 114.947 48.2414C114.903 53.2621 113.985 57.6255 112.192 61.3318C110.399 65.038 107.968 67.9147 104.901 69.9617C101.854 71.9872 98.3977 73 94.5306 73ZM94.7898 64.8549C97.2527 64.8549 99.1539 63.5728 100.493 61.0086C101.833 58.4228 102.503 54.2533 102.503 48.5C102.503 45.0523 102.222 42.111 101.66 39.6761C101.098 37.2412 100.256 35.3773 99.1323 34.0844C98.0089 32.7916 96.6046 32.1451 94.9194 32.1451C92.4565 32.1451 90.5554 33.3841 89.2159 35.8621C87.8764 38.3186 87.2067 42.1649 87.2067 47.4011C87.2067 50.8918 87.4875 53.9516 88.0492 56.5805C88.611 59.1878 89.4535 61.2241 90.577 62.6893C91.7004 64.133 93.1047 64.8549 94.7898 64.8549Z" fill="#545454"/>
<path d="M12.2313 25L0 38.1053L6.04773 43.7418L10.4343 40.3639V72H23.4772V25H12.2313Z" fill="#545454"/>
<path d="M109 9.29494H118.209L124.543 25.5305H124.862L131.197 9.29494H140.405V37.9591H133.166V21.3876H132.953L126.885 37.7351H122.52L116.452 21.2756H116.239V37.9591H109V9.29494Z" fill="#545454"/>
<path d="M143.167 23.2448V18.766L151.3 11.6896C151.84 11.2193 152.301 10.7789 152.684 10.3683C153.075 9.95033 153.373 9.52111 153.579 9.0807C153.792 8.64029 153.898 8.15136 153.898 7.61391C153.898 7.0242 153.777 6.52034 153.536 6.10232C153.302 5.6843 152.975 5.36332 152.557 5.13939C152.138 4.90798 151.655 4.79228 151.109 4.79228C150.562 4.79228 150.08 4.90798 149.661 5.13939C149.249 5.37079 148.93 5.71043 148.703 6.15831C148.476 6.60618 148.362 7.1511 148.362 7.79306H142.741C142.741 6.1807 143.085 4.79228 143.774 3.6278C144.462 2.46332 145.435 1.56757 146.691 0.940542C147.947 0.313514 149.42 0 151.109 0C152.855 0 154.366 0.294852 155.644 0.884557C156.929 1.4668 157.919 2.2879 158.614 3.34788C159.317 4.40785 159.668 5.65071 159.668 7.07645C159.668 7.95728 159.494 8.83437 159.146 9.70773C158.799 10.5736 158.174 11.5328 157.273 12.5853C156.371 13.6378 155.09 14.8919 153.43 16.3475L151.386 18.139V18.2734H159.902V23.2448H143.167Z" fill="#545454"/>
</svg>
